<?xml version="1.0" encoding="UTF-8" standalone="no"?>
<!DOCTYPE svg PUBLIC "-//W3C//DTD SVG 1.1//EN" "http://www.w3.org/Graphics/SVG/1.1/DTD/svg11.dtd">
<!-- Created with Vectornator (http://vectornator.io/) -->
<svg height="100%" stroke-miterlimit="10" style="fill-rule:nonzero;clip-rule:evenodd;stroke-linecap:round;stroke-linejoin:round;" version="1.1" viewBox="0 0 178.207 71.9303" width="100%" xml:space="preserve" xmlns="http://www.w3.org/2000/svg" xmlns:vectornator="http://vectornator.io" xmlns:xlink="http://www.w3.org/1999/xlink">
<defs>
<path d="M39.0938 13.8438C38.1953 13.8749 36.9931 14.4827 36.7812 14.5938L5.3125 32.875C3.55915 33.8659 2.22725 35.2467 1.3125 37C0.579219 38.4055 0.458035 39.6328 0.3125 41.9688C0.292505 42.0718 0.306089 43.0225 0.3125 43.4688C0.317745 43.5529 0.307265 43.7623 0.3125 43.8438C0.452522 46.0213 0.605648 47.1139 1.3125 48.4688C2.22725 50.222 3.55915 51.6028 5.3125 52.5938L36.7812 70.875C36.9931 70.9861 38.1953 71.5939 39.0938 71.625C39.9239 71.6537 41.2728 71.3665 42.5938 69.7188C43.9529 68.0232 45.229 66.0367 45.4062 64.0625C45.6373 61.4891 45.1638 61.4634 43.5312 60.3125C41.8011 59.0928 40.2794 58.0459 37.6875 56.75L13.0312 42.75L37.6875 28.7188C40.2795 27.4229 41.8011 26.376 43.5312 25.1562C45.1638 24.0054 45.6373 23.9797 45.4062 21.4062C45.229 19.432 43.9529 17.4456 42.5938 15.75C41.2728 14.1022 39.9239 13.8151 39.0938 13.8438ZM54.0312 43.125C53.1512 43.125 52.3925 43.2937 51.8125 43.5938C51.2325 43.8937 50.7662 44.27 50.4062 44.75C50.0462 45.23 49.785 45.7975 49.625 46.4375C49.465 47.0776 49.4062 47.7488 49.4062 48.4688C49.4063 48.7488 49.4175 49.055 49.4375 49.375C49.4575 49.6951 49.4825 49.9788 49.5625 50.2188L63.4375 57.4062L49.5625 64.5938C49.4825 64.8337 49.4575 65.1174 49.4375 65.4375C49.4175 65.7575 49.4063 66.0638 49.4062 66.3438C49.4062 67.0637 49.465 67.735 49.625 68.375C49.785 69.015 50.0462 69.5825 50.4062 70.0625C50.7662 70.5425 51.2325 70.9188 51.8125 71.2188C52.3925 71.5188 53.1512 71.6875 54.0312 71.6875C54.8713 71.6875 55.68 71.5163 56.5 71.1562C57.32 70.7962 58.3312 70.2737 59.5312 69.5938L72.4375 62.1562C72.9833 61.6987 73.5209 61.3425 73.7812 60.1875C73.9522 59.4291 73.8989 58.8164 73.9062 58.0625L74 58.0625C74 58.0625 73.9671 57.5445 73.9688 57.4062C73.9671 57.268 74 56.75 74 56.75L73.9062 56.75C73.8989 55.9961 73.9522 55.3834 73.7812 54.625C73.5209 53.47 72.9833 53.1138 72.4375 52.6562L59.5312 45.2188C58.3312 44.5388 57.32 44.0163 56.5 43.6562C55.68 43.2962 54.8713 43.125 54.0312 43.125Z" id="Fill"/>
<linearGradient gradientTransform="matrix(1 0 0 1 0 2)" gradientUnits="userSpaceOnUse" id="LinearGradient" x1="0" x2="74.1037" y1="40.9347" y2="40.9347">
<stop offset="0" stop-color="#0080e9"/>
<stop offset="1" stop-color="#00bdd3"/>
</linearGradient>
</defs>
<g id="Layer-1" vectornator:layerName="Layer 1">
<g opacity="1" vectornator:layerName="Group 6">
<use fill="#000000" fill-rule="nonzero" opacity="1" stroke="none" vectornator:layerName="Curve 1" xlink:href="#Fill"/>
<clipPath id="ClipPath">
<use xlink:href="#Fill"/>
</clipPath>
<g clip-path="url(#ClipPath)">
<path d="M0 12.2376L74.1037 12.2376L74.1037 73.6318L0 73.6318L0 12.2376Z" fill="url(#LinearGradient)" fill-rule="nonzero" opacity="1" stroke="none" vectornator:layerName="Rectangle 1"/>
</g>
</g>
<g opacity="1" vectornator:layerName="Group 4">
<path d="M64.9946 20.15C64.9946 19.1167 64.703 18.3583 64.1196 17.875C63.5363 17.3917 62.7446 17.15 61.7446 17.15C61.078 17.15 60.4196 17.2333 59.7696 17.4C59.1196 17.5667 58.5613 17.8167 58.0946 18.15L58.0946 35.5C57.7613 35.6 57.2363 35.7 56.5196 35.8C55.803 35.9 55.0613 35.95 54.2946 35.95C53.5613 35.95 52.903 35.9 52.3196 35.8C51.7363 35.7 51.2446 35.5 50.8446 35.2C50.4446 34.9 50.1363 34.4917 49.9196 33.975C49.703 33.4583 49.5946 32.7833 49.5946 31.95L49.5946 16.95C49.5946 16.05 49.7863 15.3167 50.1696 14.75C50.553 14.1833 51.078 13.6667 51.7446 13.2C52.878 12.4 54.303 11.75 56.0196 11.25C57.7363 10.75 59.6446 10.5 61.7446 10.5C65.5113 10.5 68.4113 11.325 70.4446 12.975C72.478 14.625 73.4946 16.9167 73.4946 19.85L73.4946 35.5C73.1613 35.6 72.6363 35.7 71.9196 35.8C71.203 35.9 70.4613 35.95 69.6946 35.95C68.9613 35.95 68.303 35.9 67.7196 35.8C67.1363 35.7 66.6446 35.5 66.2446 35.2C65.8446 34.9 65.5363 34.4917 65.3196 33.975C65.103 33.4583 64.9946 32.7833 64.9946 31.95L64.9946 20.15Z" fill="#ffffff" fill-rule="nonzero" opacity="1" stroke="none"/>
<path d="M91.5946 36.35C89.628 36.35 87.803 36.075 86.1196 35.525C84.4363 34.975 82.9696 34.15 81.7196 33.05C80.4696 31.95 79.4863 30.5667 78.7696 28.9C78.053 27.2333 77.6946 25.2833 77.6946 23.05C77.6946 20.85 78.053 18.9583 78.7696 17.375C79.4863 15.7917 80.428 14.4917 81.5946 13.475C82.7613 12.4583 84.0946 11.7083 85.5946 11.225C87.0946 10.7417 88.628 10.5 90.1946 10.5C91.9613 10.5 93.5696 10.7667 95.0196 11.3C96.4696 11.8333 97.7196 12.5667 98.7696 13.5C99.8196 14.4333 100.636 15.55 101.22 16.85C101.803 18.15 102.095 19.5667 102.095 21.1C102.095 22.2333 101.778 23.1 101.145 23.7C100.511 24.3 99.628 24.6833 98.4946 24.85L86.1446 26.7C86.5113 27.8 87.2613 28.625 88.3946 29.175C89.528 29.725 90.828 30 92.2946 30C93.6613 30 94.953 29.825 96.1696 29.475C97.3863 29.125 98.378 28.7167 99.1446 28.25C99.678 28.5833 100.128 29.05 100.495 29.65C100.861 30.25 101.045 30.8833 101.045 31.55C101.045 33.05 100.345 34.1667 98.9446 34.9C97.878 35.4667 96.678 35.85 95.3446 36.05C94.0113 36.25 92.7613 36.35 91.5946 36.35ZM90.1946 16.7C89.3946 16.7 88.703 16.8333 88.1196 17.1C87.5363 17.3667 87.0613 17.7083 86.6946 18.125C86.328 18.5417 86.053 19.0083 85.8696 19.525C85.6863 20.0417 85.578 20.5667 85.5446 21.1L94.0946 19.7C93.9946 19.0333 93.628 18.3667 92.9946 17.7C92.3613 17.0333 91.428 16.7 90.1946 16.7Z" fill="#ffffff" fill-rule="nonzero" opacity="1" stroke="none"/>
<path d="M114.845 40.5069C114.478 40.5837 113.936 40.6893 113.22 40.8236C112.503 40.958 111.778 41.0252 111.045 41.0252C110.311 41.0252 109.653 40.9676 109.07 40.8524C108.486 40.7373 107.995 40.5069 107.595 40.1614C107.195 39.8159 106.886 39.3456 106.67 38.7505C106.453 38.1555 106.345 37.3781 106.345 36.4183L106.345 3.01828C106.711 2.94149 107.253 2.83592 107.97 2.70155C108.686 2.56718 109.411 2.5 110.145 2.5C110.878 2.5 111.536 2.55759 112.12 2.67276C112.703 2.78793 113.195 3.01828 113.595 3.36379C113.995 3.70931 114.303 4.1796 114.52 4.77466C114.736 5.36971 114.845 6.14713 114.845 7.1069L114.845 40.5069Z" fill="#ffffff" fill-rule="nonzero" opacity="1" stroke="none"/>
<path d="M143.945 31.15C143.778 32.7167 143.32 33.9167 142.57 34.75C141.82 35.5833 140.728 36 139.295 36C138.228 36 137.278 35.7417 136.445 35.225C135.611 34.7083 134.711 33.8333 133.745 32.6L128.795 26.4L128.795 35.5C128.428 35.5667 127.886 35.6583 127.17 35.775C126.453 35.8917 125.728 35.95 124.995 35.95C124.261 35.95 123.603 35.9 123.02 35.8C122.436 35.7 121.945 35.5 121.545 35.2C121.145 34.9 120.836 34.4917 120.62 33.975C120.403 33.4583 120.295 32.7833 120.295 31.95L120.295 3C120.661 2.9 121.203 2.79167 121.92 2.675C122.636 2.55833 123.361 2.5 124.095 2.5C124.828 2.5 125.486 2.55 126.07 2.65C126.653 2.75 127.145 2.95 127.545 3.25C127.945 3.55 128.253 3.95833 128.47 4.475C128.686 4.99167 128.795 5.66667 128.795 6.5L128.795 19.7L137.395 10.9C139.128 10.9 140.52 11.2833 141.57 12.05C142.62 12.8167 143.145 13.7833 143.145 14.95C143.145 15.45 143.061 15.9083 142.895 16.325C142.728 16.7417 142.47 17.1667 142.12 17.6C141.77 18.0333 141.32 18.4917 140.77 18.975C140.22 19.4583 139.578 20.0167 138.845 20.65L135.945 23.15L143.945 31.15Z" fill="#ffffff" fill-rule="nonzero" opacity="1" stroke="none"/>
<path d="M147.745 4.5C147.745 3.23333 148.17 2.16667 149.02 1.3C149.87 0.433333 150.995 0 152.395 0C153.795 0 154.92 0.433333 155.77 1.3C156.62 2.16667 157.045 3.23333 157.045 4.5C157.045 5.76667 156.62 6.83333 155.77 7.7C154.92 8.56667 153.795 9 152.395 9C150.995 9 149.87 8.56667 149.02 7.7C148.17 6.83333 147.745 5.76667 147.745 4.5ZM156.645 35.5C156.278 35.5667 155.736 35.6583 155.02 35.775C154.303 35.8917 153.578 35.95 152.845 35.95C152.111 35.95 151.453 35.9 150.87 35.8C150.286 35.7 149.795 35.5 149.395 35.2C148.995 34.9 148.686 34.4917 148.47 33.975C148.253 33.4583 148.145 32.7833 148.145 31.95L148.145 11.6C148.511 11.5333 149.053 11.4417 149.77 11.325C150.486 11.2083 151.211 11.15 151.945 11.15C152.678 11.15 153.336 11.2 153.92 11.3C154.503 11.4 154.995 11.6 155.395 11.9C155.795 12.2 156.103 12.6083 156.32 13.125C156.536 13.6417 156.645 14.3167 156.645 15.15L156.645 35.5Z" fill="#ffffff" fill-rule="nonzero" opacity="1" stroke="none"/>
<path d="M170.545 27.2C170.545 28.0667 170.82 28.6833 171.37 29.05C171.92 29.4167 172.695 29.6 173.695 29.6C174.195 29.6 174.711 29.5583 175.245 29.475C175.778 29.3917 176.245 29.2833 176.645 29.15C176.945 29.5167 177.203 29.925 177.42 30.375C177.636 30.825 177.745 31.3667 177.745 32C177.745 33.2667 177.27 34.3 176.32 35.1C175.37 35.9 173.695 36.3 171.295 36.3C168.361 36.3 166.103 35.6333 164.52 34.3C162.936 32.9667 162.145 30.8 162.145 27.8L162.145 6.4C162.511 6.3 163.036 6.19167 163.72 6.075C164.403 5.95833 165.128 5.9 165.895 5.9C167.361 5.9 168.503 6.15833 169.32 6.675C170.136 7.19167 170.545 8.28333 170.545 9.95L170.545 13.15L177.095 13.15C177.295 13.5167 177.486 13.975 177.67 14.525C177.853 15.075 177.945 15.6833 177.945 16.35C177.945 17.5167 177.686 18.3583 177.17 18.875C176.653 19.3917 175.961 19.65 175.095 19.65L170.545 19.65L170.545 27.2Z" fill="#ffffff" fill-rule="nonzero" opacity="1" stroke="none"/>
</g>
<g opacity="1" vectornator:layerName="Group 5">
<path d="M89.7928 58.7375C89.7928 56.5375 90.1261 54.6292 90.7928 53.0125C91.4595 51.3958 92.3845 50.0542 93.5678 48.9875C94.7511 47.9208 96.1345 47.1292 97.7178 46.6125C99.3011 46.0958 101.009 45.8375 102.843 45.8375C103.509 45.8375 104.159 45.8958 104.793 46.0125C105.426 46.1292 105.943 46.2708 106.343 46.4375L106.343 29.3375L107.943 29.0125L110.193 28.8375L112.168 28.9875L113.643 29.5875L114.543 30.8125L114.843 32.8375L114.843 65.5375C114.843 67.1042 114.109 68.3542 112.643 69.2875C111.676 69.9208 110.426 70.4792 108.893 70.9625C107.359 71.4458 105.593 71.6875 103.593 71.6875C101.426 71.6875 99.4845 71.3875 97.7678 70.7875C96.0511 70.1875 94.6011 69.3208 93.4178 68.1875C92.2345 67.0542 91.3345 65.6958 90.7178 64.1125C90.1011 62.5292 89.7928 60.7375 89.7928 58.7375ZM103.993 52.4875C102.193 52.4875 100.809 53.0042 99.8428 54.0375C98.8761 55.0708 98.3928 56.6375 98.3928 58.7375C98.3928 60.8042 98.8428 62.3625 99.7428 63.4125C100.643 64.4625 101.943 64.9875 103.643 64.9875C104.243 64.9875 104.784 64.8958 105.268 64.7125C105.751 64.5292 106.126 64.3208 106.393 64.0875L106.393 53.0875C105.726 52.6875 104.926 52.4875 103.993 52.4875Z" fill="#ffffff" fill-rule="nonzero" opacity="1" stroke="none"/>
<path d="M132.993 71.6875C131.026 71.6875 129.201 71.4125 127.518 70.8625C125.834 70.3125 124.368 69.4875 123.118 68.3875C121.868 67.2875 120.884 65.9042 120.168 64.2375C119.451 62.5708 119.093 60.6208 119.093 58.3875C119.093 56.1875 119.451 54.2958 120.168 52.7125C120.884 51.1292 121.826 49.8292 122.993 48.8125C124.159 47.7958 125.493 47.0458 126.993 46.5625C128.493 46.0792 130.026 45.8375 131.593 45.8375C133.359 45.8375 134.968 46.1042 136.418 46.6375C137.868 47.1708 139.118 47.9042 140.168 48.8375C141.218 49.7708 142.034 50.8875 142.618 52.1875C143.201 53.4875 143.493 54.9042 143.493 56.4375C143.493 57.5708 143.176 58.4375 142.543 59.0375C141.909 59.6375 141.026 60.0208 139.893 60.1875L127.543 62.0375C127.909 63.1375 128.659 63.9625 129.793 64.5125C130.926 65.0625 132.226 65.3375 133.693 65.3375C135.059 65.3375 136.351 65.1625 137.568 64.8125C138.784 64.4625 139.776 64.0542 140.543 63.5875C141.076 63.9208 141.526 64.3875 141.893 64.9875C142.259 65.5875 142.443 66.2208 142.443 66.8875C142.443 68.3875 141.743 69.5042 140.343 70.2375C139.276 70.8042 138.076 71.1875 136.743 71.3875C135.409 71.5875 134.159 71.6875 132.993 71.6875ZM131.593 52.0375C130.793 52.0375 130.101 52.1708 129.518 52.4375C128.934 52.7042 128.459 53.0458 128.093 53.4625C127.726 53.8792 127.451 54.3458 127.268 54.8625C127.084 55.3792 126.976 55.9042 126.943 56.4375L135.493 55.0375C135.393 54.3708 135.026 53.7042 134.393 53.0375C133.759 52.3708 132.826 52.0375 131.593 52.0375Z" fill="#ffffff" fill-rule="nonzero" opacity="1" stroke="none"/>
<path d="M163.643 70.2375C163.176 70.6042 162.493 70.9042 161.593 71.1375C160.693 71.3708 159.676 71.4875 158.543 71.4875C157.243 71.4875 156.118 71.3208 155.168 70.9875C154.218 70.6542 153.559 70.1208 153.193 69.3875C152.893 68.8208 152.534 68.0292 152.118 67.0125C151.701 65.9958 151.259 64.8625 150.793 63.6125C150.326 62.3625 149.843 61.0208 149.343 59.5875C148.843 58.1542 148.368 56.7375 147.918 55.3375C147.468 53.9375 147.059 52.5875 146.693 51.2875C146.326 49.9875 146.026 48.8375 145.793 47.8375C146.259 47.3708 146.884 46.9625 147.668 46.6125C148.451 46.2625 149.309 46.0875 150.243 46.0875C151.409 46.0875 152.368 46.3292 153.118 46.8125C153.868 47.2958 154.426 48.2042 154.793 49.5375L156.743 57.1875C157.109 58.6875 157.459 60.0458 157.793 61.2625C158.126 62.4792 158.376 63.4208 158.543 64.0875L158.793 64.0875C159.426 61.6208 160.093 58.8875 160.793 55.8875C161.493 52.8875 162.126 49.9375 162.693 47.0375C163.259 46.7375 163.901 46.5042 164.618 46.3375C165.334 46.1708 166.026 46.0875 166.693 46.0875C167.859 46.0875 168.843 46.3375 169.643 46.8375C170.443 47.3375 170.843 48.2042 170.843 49.4375C170.843 49.9708 170.718 50.7458 170.468 51.7625C170.218 52.7792 169.901 53.9292 169.518 55.2125C169.134 56.4958 168.684 57.8542 168.168 59.2875C167.651 60.7208 167.126 62.1208 166.593 63.4875C166.059 64.8542 165.534 66.1292 165.018 67.3125C164.501 68.4958 164.043 69.4708 163.643 70.2375Z" fill="#ffffff" fill-rule="nonzero" opacity="1" stroke="none"/>
</g>
</g>
</svg>
